<svg viewBox="0 0 63.69 64.2" xmlns="http://www.w3.org/2000/svg"><path d="m0 5.2v54.4l4.6 4.6h28.6c0-7.7.2-15.9.4-24.2-1.4 0-2.8 0-4.2.1-7.5.3-4.6-1.6-4.9-6.2s1.6-3.9 6.2-3.9c0 0 1.3 0 3.1-.1 0-2 .1-4.1.1-6.1.1-9.3 5.7-12.1 13-13.6 8 0 8 1 7.3 5.1.8 9.8-5.5-.3-10.5 6.5a35 35 0 0 0 -.8 8c2.5 0 4.6 0 5.8.1 3.6.3 8.1-.4 5.5 5.2-1.3 4.5.8 4.9-4.6 5-1.9.2-4.2.2-6.7.2-.1 9.2-.2 17.3-.3 23.9h15.8c3.3 0 5.3-1.6 5.2-4.9.2-13.9 0-52.7 0-55.1 0-2.9-1.8-4.2-4.9-4.2h-53.8c-4.9 0-4.9 5.2-4.9 5.2z"></path></svg>