<svg viewBox="0 0 152.71 147.54" xmlns="http://www.w3.org/2000/svg"><path d="m140.8 0h-129.9c-6.8 1.6-10.5 5.6-10.9 12v123.8c.8 6.7 4.6 10.2 10.4 11.7h50.1c3.1.7-.8-8.4-1.2-16.9a54.54 54.54 0 0 1 -14.2-1.2c-14.2-3-10.1-14.1-15.3-18.1-4.9-3.7-12.8-7.6-2.1-6.7 14.3 1.2 6.2 11.1 16.9 13.9a26.64 26.64 0 0 0 15.7-.4 33.75 33.75 0 0 1 2.6-7.8c6.3-9.7-22.8-.2-31.8-27.4-3-10.9-.4-16.9 2.2-23.9a24.83 24.83 0 0 1 3.8-7.1c-1.7-4.7-2-10.9-.4-14.5 2.8-6.1.6-8.3 13.9-3.1 2.4 1.4 6.4 2.5 8.6 4.9 1.5-.4 2.9-.7 4.4-1 5.6-.9 21.3-1.3 26.5 0 1.9.5 4 .9 6.3 1.5a34.22 34.22 0 0 1 10.2-5.8c5.6-1.7 11.7-5.6 12.2 3.5.3 5.7 1.1 9.6-.7 13.6 7.3 6.9 8.9 18.7 7.2 28.9-7.9 30-40.8 18.9-33 29.3 2.1 2.8 4.1 6.1 4.4 9.8.7 7.9-3.9 28.9 0 28.5h42.7c8.5-1.2 13.6-5 13.3-12.6v-122.9c-.5-7.1-3.8-11.7-11.9-12z"></path></svg>