<svg viewBox="0 0 181.8 181.47" xmlns="http://www.w3.org/2000/svg">
  <path d="m83.645-0.38867c-69.891 0.075609-83.645 7.4944-83.645 87.967 0.32163 87.156 8.2638 91.874 90.586 92.467 84.813 0.61088 90.238-5.5374 90.209-91.715-0.02707-80.788-6.3889-88.329-90.209-88.705-2.3728-0.01064-4.6869-0.016111-6.9414-0.013672zm20.469 14.541c59.824 0.08678 60.112 12.154 60.145 74.178 0.0384 73.678-1.9203 75.342-72.92 75.928-77.718 0.64093-75.93-8.7188-76.303-74.424-1.8794-76.678 8.2973-74.209 76.303-75.551 4.535-0.08947 8.7872-0.13664 12.775-0.13086zm33.916 15.299c-5.6971-0.0445-11.359 3.6251-11.359 11.143-0.40593 15.245 23.267 17.802 22.928 0-0.14001-7.3395-5.8713-11.098-11.568-11.143zm-48.814 13.928c-23.035 0.38717-45.801 15.633-45.613 44.951-0.59838 62.825 94.757 64.122 92.842-0.75195-0.88913-30.115-24.194-44.586-47.229-44.199zm1.4395 14.758c14.136 0.27015 27.922 9.5747 28.873 27.939 2.3124 44.648-60.539 44.397-60.139 1.8789 0.77524-20.156 16.218-30.106 31.266-29.818z" stroke-opacity="0"></path>
</svg>
