<svg viewBox="0 0 132.93 31.12" xmlns="http://www.w3.org/2000/svg"><path d="m28.69 11.65c-.7-2.2-1.5-2.2-3.5-1.7s-1.7 1.7-2.4 3.7-2.6 6.5-6.7 4.3a26.37 26.37 0 0 1 -8.5-8.3c-.5-1.1-2.2-2.2-3.3-1.9l-1.1.25-1.7 2a20.8 20.8 0 0 0 -1.3 7.6c0 4.6-.7 9.1.6 12.2s2.4.2 2.6 0a22.82 22.82 0 0 0 .9-9.2c-.8-7.2 0-8.6 3.9-3.2 2.3 3.2 6.7 7.2 10.2 5.6s3.5-1.1 5.6-3.7 1.7-5.1 2.4-4.2.9 3.5 1.3 8.1-.7 7.4 1.7 7.4 2.6-4.1 2.4-7.4-2.4-9.35-3.1-11.55z"></path><path d="m44.79 10.35-2.6.4c-2.4 1.3-5.9 3.9-7 7.6s-.2 4.8 1.7 6.3 7.4 1.5 10.2 0 4.8-2.3 4.8-6.4-4.5-8.25-7.1-7.9zm1.3 10.2c-9.5 3.3-7.4-4.9-2.7-4.5s6 3 2.7 4.5z"></path><path d="m67.89 16c-2.3-.8 4.6-3.4 4.2-7s-8.5-4.7-12.9-1.2-1.9 9.6-1 16.5c.6 4.4 3.2 1 3.4.2.4-1.8-.8-7.3-.8-7.3s-2.8-6.8 2.6-8.1c6.4-2.1 2.9 2.8 2.1 4.2-6.8 2.8 1.6 7.2 5.5 9.1 1.5 1 3.2 5.2 6.7 3.5 2.7-1.9-7.6-9.15-9.8-9.9z"></path><path d="m79.39 7.75c-1.6 1.1.3 11.1 1.1 14.9 2.4 10.9 4.6 3.8 4.6 3.8s-2.4-9.4.9-8.4c1.7-.5 6.6-.7 6.6-7.8s-11.59-3.7-13.2-2.5zm4.3 5.2c-2.8-2.4 1.6-5.2 4.1-2.6 4.1 4-.7 3.9-4.1 2.65z"></path><path d="m108.09 10.35c0-1.8.9-8-.6-9.7-1.1-1.3-3.3-.8-3 3 0 7.7.7 8.7-2.3 9.1-2 .7-2.7.8-2.8-3.4.2-3.7-4.6-8.3-3.3 2.1s-.09 14.4 3.3 12.55c2.8-1-2-6.6 2.9-8.9 5.8 0 1.3 7.2 3.9 8.5 3.81 1.25 1.7-6.75 1.9-13.25z"></path><path d="m117.49 5.55c-.7-4.2-4-6.7-4.2 0-.7 21.9 2.7 20.9 4.2 15.9.51-2.1-2.2-6.1 0-15.9z"></path><path d="m128.09 19.35c-8.1 5-6.9-5.9-2.2-9.1s7.3-5 4.3-5.8c-4.1-1.1-13 5.1-11.1 14.9s9.3 5.3 11.1 3.7 6.1-8.7-2.1-3.7z"></path><path d="m28.69 11.65c-.7-2.2-1.5-2.2-3.5-1.7s-1.7 1.7-2.4 3.7-2.6 6.5-6.7 4.3a26.37 26.37 0 0 1 -8.5-8.3c-.5-1.1-2.2-2.2-3.3-1.9l-1.1.25-1.7 2a20.8 20.8 0 0 0 -1.3 7.6c0 4.6-.7 9.1.6 12.2s2.4.2 2.6 0a22.82 22.82 0 0 0 .9-9.2c-.8-7.2 0-8.6 3.9-3.2 2.3 3.2 6.7 7.2 10.2 5.6s3.5-1.1 5.6-3.7 1.7-5.1 2.4-4.2.9 3.5 1.3 8.1-.7 7.4 1.7 7.4 2.6-4.1 2.4-7.4-2.4-9.35-3.1-11.55z"></path><path d="m44.79 10.35-2.6.4c-2.4 1.3-5.9 3.9-7 7.6s-.2 4.8 1.7 6.3 7.4 1.5 10.2 0 4.8-2.3 4.8-6.4-4.5-8.25-7.1-7.9zm1.3 10.2c-9.5 3.3-7.4-4.9-2.7-4.5s6 3 2.7 4.5z"></path><path d="m67.89 16c-2.3-.8 4.6-3.4 4.2-7s-8.5-4.7-12.9-1.2-1.9 9.6-1 16.5c.6 4.4 3.2 1 3.4.2.4-1.8-.8-7.3-.8-7.3s-2.8-6.8 2.6-8.1c6.4-2.1 2.9 2.8 2.1 4.2-6.8 2.8 1.6 7.2 5.5 9.1 1.5 1 3.2 5.2 6.7 3.5 2.7-1.9-7.6-9.15-9.8-9.9z"></path><path d="m79.39 7.75c-1.6 1.1.3 11.1 1.1 14.9 2.4 10.9 4.6 3.8 4.6 3.8s-2.4-9.4.9-8.4c1.7-.5 6.6-.7 6.6-7.8s-11.59-3.7-13.2-2.5zm4.3 5.2c-2.8-2.4 1.6-5.2 4.1-2.6 4.1 4-.7 3.9-4.1 2.65z"></path><path d="m108.09 10.35c0-1.8.9-8-.6-9.7-1.1-1.3-3.3-.8-3 3 0 7.7.7 8.7-2.3 9.1-2 .7-2.7.8-2.8-3.4.2-3.7-4.6-8.3-3.3 2.1s-.09 14.4 3.3 12.55c2.8-1-2-6.6 2.9-8.9 5.8 0 1.3 7.2 3.9 8.5 3.81 1.25 1.7-6.75 1.9-13.25z"></path><path d="m117.49 5.55c-.7-4.2-4-6.7-4.2 0-.7 21.9 2.7 20.9 4.2 15.9.51-2.1-2.2-6.1 0-15.9z"></path><path d="m128.09 19.35c-8.1 5-6.9-5.9-2.2-9.1s7.3-5 4.3-5.8c-4.1-1.1-13 5.1-11.1 14.9s9.3 5.3 11.1 3.7 6.1-8.7-2.1-3.7z"></path></svg>