<svg viewBox="0 0 151.69 155.5" xmlns="http://www.w3.org/2000/svg"><path d="m0 9.4v134.2c0 7.8 4.9 11.8 11.6 11.9h127.3c8.9 0 13.5-4.1 12.7-13.2v-128.5c.6-9.4-3.7-13.3-12.7-12.2l-129.4-1.6c-9.3 0-9.5 9.4-9.5 9.4zm43 120.5c-25.6-3.5-17.2-29.1-4.3-29.1 15.4-2.4 26.1 24.7 4.3 29.1zm41.7 0c-12.5 1.7-11.1-11.4-10.2-12.3 4.3-23-19.2-38.8-33.6-33.8-3.6.6-18.3.6-15.1-12.9 0-9.9 15.1-7.3 15.1-7.3 14.6 3.1 28.3 7.6 38 17.9 11.2 13 14.5 24.3 15.6 35.1 0-.1.3 13.3-9.8 13.3zm34.8 0c-17.5 1.7-13.2-13.6-11.4-14.8 8.3-25.9-34.1-71.1-67.2-65.2-3.3 2.3-17.8 4.2-15-11.7 2-11.4 15-9.8 15-9.8 51.8 4.2 79.1 34.8 89 84.1-.1 0 3.5 17.4-10.4 17.4z"></path></svg>